<?xml version="1.0" encoding="utf-8"?>
<!-- Generated by IcoMoon.io -->
<!DOCTYPE svg PUBLIC "-//W3C//DTD SVG 1.1//EN" "http://www.w3.org/Graphics/SVG/1.1/DTD/svg11.dtd">
<svg version="1.1" xmlns="http://www.w3.org/2000/svg" xmlns:xlink="http://www.w3.org/1999/xlink" width="28" height="28" viewBox="0 0 28 28">
<path fill="#fff" d="M27.453 22l0.547 4.891q0.047 0.438-0.25 0.781-0.297 0.328-0.75 0.328h-26q-0.453 0-0.75-0.328-0.297-0.344-0.25-0.781l0.547-4.891h26.906zM26 8.891l1.344 12.109h-26.688l1.344-12.109q0.047-0.375 0.328-0.633t0.672-0.258h4v2q0 0.828 0.586 1.414t1.414 0.586 1.414-0.586 0.586-1.414v-2h6v2q0 0.828 0.586 1.414t1.414 0.586 1.414-0.586 0.586-1.414v-2h4q0.391 0 0.672 0.258t0.328 0.633zM20 6v4q0 0.406-0.297 0.703t-0.703 0.297-0.703-0.297-0.297-0.703v-4q0-1.656-1.172-2.828t-2.828-1.172-2.828 1.172-1.172 2.828v4q0 0.406-0.297 0.703t-0.703 0.297-0.703-0.297-0.297-0.703v-4q0-2.484 1.758-4.242t4.242-1.758 4.242 1.758 1.758 4.242z"></path>
</svg>
